<svg viewBox="0 0 77 40" xmlns="http://www.w3.org/2000/svg" role="img" data-qa="Logo" focusable="false" width="77" height="40" class="sc-cTcUcm MFCNm sc-ezOSoI cohnpO"><title>C&amp;A Logo</title><path fill="currentColor" d="M36.7449 23.1549L33.594 18.8219C32.6794 19.3987 32.0642 20.5292 32.0642 21.5876C32.0642 23.2515 33.0414 24.2337 34.5808 24.2337C35.539 24.2337 36.1256 23.7739 36.7449 23.1549ZM34.672 13.9868C34.672 14.9378 35.0082 15.554 35.6084 16.4302C36.6959 15.8547 37.2254 15.048 37.2254 13.961C37.2254 13.2127 36.8538 12.4672 36.0453 12.4672C35.1647 12.4672 34.672 13.1787 34.672 13.9868ZM38.0406 24.597C36.7844 25.5806 35.2872 25.8159 34.1344 25.8159C31.2965 25.8159 29.0099 24.3031 28.9596 21.7359C28.9187 19.5034 31.0134 17.9416 32.7257 17.4219C32.1935 16.7172 31.7307 15.9132 31.7307 14.8425C31.7307 12.3624 33.8567 11.1489 36.1011 11.1489C38.3169 11.1489 39.9244 12.376 39.9244 14.3215C39.9244 16.018 38.2244 17.0737 36.6755 17.7498L38.8069 20.921C39.58 19.834 40.104 18.7443 40.3762 17.6532C40.3967 17.5648 40.4702 17.4151 40.7641 17.4151H44.1777C44.371 17.4151 44.6092 17.3893 44.4445 17.7988L44.0389 18.7239C43.9463 18.9062 43.832 18.9946 43.6347 18.9973H43.1624C42.7881 18.9973 42.6451 19.2177 42.4247 19.5551C42.4247 19.5551 41.9347 20.3632 41.5862 20.8544C41.0268 21.638 40.8894 21.8924 40.0224 22.7604C40.0224 22.7604 40.6907 23.8963 42.1007 23.9004H42.7159C42.818 23.9004 43.1501 23.8596 42.9977 24.2392L42.5812 25.2405C42.5227 25.386 42.4492 25.5139 42.1701 25.5139H40.7914C40.7914 25.5139 39.071 25.6377 38.0406 24.597ZM59.8723 25.5166L55.2296 10.1952L49.0667 25.5166H59.8723ZM77 36.9213V39.1075C77 39.4721 76.7591 39.6857 76.4175 39.6885H60.1458C59.7865 39.6857 59.5647 39.4531 59.5647 39.1184V36.9213C59.5647 36.5703 59.8028 36.3485 60.1458 36.3485L61.4906 36.3159C62.544 36.2941 62.8054 35.788 62.8217 35.3051C62.8299 35.0942 62.7863 34.8847 62.7455 34.7228C62.6352 34.2902 62.3004 33.2549 62.3004 33.2549C62.3004 33.2549 61.349 30.2034 60.7515 28.5368H47.8635L45.7103 33.8331C45.4843 34.3854 45.385 34.8126 45.385 35.1513C45.3823 36.2642 46.448 36.3227 47.4538 36.3377L48.6788 36.3485C49.0245 36.3526 49.2559 36.5594 49.2559 36.9172V39.1075C49.2559 39.4599 49.0368 39.6857 48.6788 39.6885H37.6663C37.322 39.6857 37.0893 39.4789 37.0893 39.1116V36.9213C37.0893 36.5703 37.3111 36.3485 37.6663 36.3485L38.042 36.3377C38.042 36.3377 39.2234 36.3839 39.8863 36.0492C40.5627 35.7091 40.8186 35.2969 41.1126 34.6044L55.2555 0.76866C55.4079 0.389096 55.691 0.266653 56.0109 0.266653H60.5269C60.9039 0.266653 61.1421 0.447592 61.2551 0.76866C62.5372 4.43779 73.0597 34.4385 73.0665 34.4494C73.5728 35.8656 74.071 36.3377 75.7301 36.3417L76.4215 36.3485C76.7673 36.3485 77 36.5662 77 36.9213ZM30.7235 29.1164V39.1116C30.7235 39.4626 30.5003 39.6871 30.1464 39.6871H27.8462C27.6216 39.6871 27.4447 39.6259 27.3004 39.3225C27.1697 39.0273 26.9207 38.6695 26.3885 38.6695C25.1104 38.6695 22.8429 40 17.762 40C6.25958 40 0 30.4932 0 20.0789C0 7.74641 7.49543 0 17.6953 0C20.9292 0 22.7408 0.650299 23.8161 1.09381C24.679 1.4965 25.0737 1.7509 25.6399 1.7509C26.4198 1.7509 26.6607 1.31148 26.9288 0.723764C27.0922 0.38229 27.1997 0.268014 27.4869 0.268014H29.7816C30.1233 0.268014 30.3601 0.489764 30.3547 0.848923V10.8618C30.3601 11.2115 30.1382 11.436 29.7816 11.436H27.5359C27.2242 11.436 27.0432 11.3149 26.9588 10.9108C26.1027 6.20638 24.4231 3.36576 19.1462 3.36576C12.496 3.36576 10.8968 13.6222 10.8968 18.679C10.8968 26.3792 11.7665 36.671 19.4252 36.671C24.9689 36.671 26.6158 33.5283 27.3235 29.0443C27.412 28.6089 27.6856 28.5368 27.887 28.5368H30.1464C30.4812 28.5368 30.7235 28.7518 30.7235 29.1164Z"></path></svg>